<?xml version="1.0" ?><svg height="100" id="svg2" version="1.1" width="100" xmlns="http://www.w3.org/2000/svg" xmlns:cc="http://creativecommons.org/ns#" xmlns:dc="http://purl.org/dc/elements/1.1/" xmlns:inkscape="http://www.inkscape.org/namespaces/inkscape" xmlns:rdf="http://www.w3.org/1999/02/22-rdf-syntax-ns#" xmlns:sodipodi="http://sodipodi.sourceforge.net/DTD/sodipodi-0.dtd" xmlns:svg="http://www.w3.org/2000/svg"><defs id="defs4"/><g id="layer1" transform="translate(0,-952.36218)"><path d="M 27.46875 10.28125 L 27.3125 10.46875 L 20 19.28125 L 19.875 19.4375 L 19.875 19.59375 L 19.875 81.3125 L 19.875 81.5625 L 19.875 81.75 L 20 81.90625 L 27.1875 89.46875 L 27.34375 89.625 L 27.5625 89.625 L 73.75 89.625 L 74 89.625 L 74.15625 89.40625 L 80.15625 80.53125 L 80.25 80.40625 L 80.25 80.25 L 80.25 19.5625 L 80.25 19.375 L 80.125 19.21875 L 72.6875 10.46875 L 72.53125 10.28125 L 72.3125 10.28125 L 27.6875 10.28125 L 27.46875 10.28125 z M 28.5625 11.28125 L 71.625 11.28125 L 69.34375 15.28125 L 30.8125 15.28125 L 28.5625 11.28125 z M 27.625 11.65625 L 29.9375 15.75 L 24.1875 22.6875 L 21.15625 19.4375 L 27.625 11.65625 z M 72.46875 11.78125 L 79.03125 19.46875 L 75.96875 22.6875 L 70.15625 15.84375 L 72.46875 11.78125 z M 31.375 16.28125 L 68.78125 16.28125 L 66.65625 20 L 33.5 20 L 31.375 16.28125 z M 30.4375 16.6875 L 32.625 20.5 L 27.6875 26.40625 L 24.875 23.40625 L 30.4375 16.6875 z M 69.625 16.78125 L 75.3125 23.40625 L 72.46875 26.40625 L 67.5 20.5625 L 69.625 16.78125 z M 20.875 20.625 L 23.65625 23.5625 L 23.65625 77.25 L 20.875 80.25 L 20.875 20.625 z M 79.25 20.6875 L 79.25 79.40625 L 76.46875 76.40625 L 76.46875 76.375 L 76.46875 23.625 L 79.25 20.6875 z M 34.0625 21 L 66.09375 21 L 64.1875 24.375 L 35.96875 24.375 L 34.0625 21 z M 33.15625 21.4375 L 35.09375 24.84375 L 30.9375 29.84375 L 28.40625 27.15625 L 33.15625 21.4375 z M 66.96875 21.5 L 71.78125 27.15625 L 69.21875 29.875 L 65.03125 24.9375 L 66.96875 21.5 z M 24.65625 24.625 L 27.25 27.375 L 27.25 73.375 L 24.65625 76.15625 L 24.65625 24.625 z M 75.46875 24.6875 L 75.46875 75.34375 L 72.875 72.5625 L 72.875 27.4375 L 75.46875 24.6875 z M 35.96875 25.375 L 64.09375 25.375 L 68.59375 30.6875 L 68.59375 69.1875 L 64.96875 74.5625 L 35.9375 74.5625 L 35.75 74.46875 L 31.53125 69.96875 L 31.53125 30.71875 L 35.96875 25.375 z M 28.25 28.4375 L 30.53125 30.875 L 30.53125 69.84375 L 28.25 72.3125 L 28.25 28.4375 z M 71.875 28.5 L 71.875 71.46875 L 69.59375 69.03125 L 69.59375 30.9375 L 71.875 28.5 z M 69.21875 70.0625 L 71.71875 72.78125 L 68.0625 78.1875 L 66.0625 74.71875 L 69.21875 70.0625 z M 30.96875 70.84375 L 34.96875 75.09375 L 33 78.53125 L 28.375 73.65625 L 30.96875 70.84375 z M 72.4375 73.5625 L 75.21875 76.5625 L 70.875 83.03125 L 68.625 79.15625 L 72.4375 73.5625 z M 27.6875 74.375 L 32.46875 79.40625 L 30.28125 83.21875 L 24.8125 77.46875 L 27.6875 74.375 z M 35.875 75.5625 L 65.21875 75.5625 L 65.375 75.5625 L 67.34375 78.90625 L 33.9375 78.90625 L 35.875 75.5625 z M 75.9375 77.3125 L 78.9375 80.5625 L 73.8125 88.125 L 71.40625 83.96875 L 75.9375 77.3125 z M 24.125 78.21875 L 29.75 84.125 L 27.40625 88.21875 L 21.0625 81.53125 L 24.125 78.21875 z M 33.34375 79.90625 L 67.875 79.90625 L 67.90625 79.90625 L 70.0625 83.625 L 31.21875 83.625 L 33.34375 79.90625 z M 30.625 84.625 L 70.65625 84.625 L 72.96875 88.625 L 28.3125 88.625 L 30.625 84.625 z " id="path3894" style="font-size:medium;font-style:normal;font-variant:normal;font-weight:normal;font-stretch:normal;text-indent:0;text-align:start;text-decoration:none;line-height:normal;letter-spacing:normal;word-spacing:normal;text-transform:none;direction:ltr;block-progression:tb;writing-mode:lr-tb;text-anchor:start;baseline-shift:baseline;color:#000000;fill:#000000;fill-opacity:1;stroke:none;stroke-width:1;marker:none;visibility:visible;display:inline;overflow:visible;enable-background:accumulate;font-family:Sans;-inkscape-font-specification:Sans" transform="translate(0,952.36218)"/></g></svg>