<?xml version="1.0" ?><svg height="100" id="svg2" version="1.1" width="100" xmlns="http://www.w3.org/2000/svg" xmlns:cc="http://creativecommons.org/ns#" xmlns:dc="http://purl.org/dc/elements/1.1/" xmlns:inkscape="http://www.inkscape.org/namespaces/inkscape" xmlns:rdf="http://www.w3.org/1999/02/22-rdf-syntax-ns#" xmlns:sodipodi="http://sodipodi.sourceforge.net/DTD/sodipodi-0.dtd" xmlns:svg="http://www.w3.org/2000/svg"><defs id="defs4"/><g id="layer1" transform="translate(0,-952.36218)"><path d="M 50.03125 9.8125 L 49.75 9.96875 C 33.583961 19.99143 22.762015 42.02696 21 61.21875 C 20.163418 70.33015 23.439845 77.47135 28.78125 82.34375 C 34.122655 87.21605 41.517863 89.8256 49 90.0625 C 56.482137 90.2994 64.048478 88.15925 69.75 83.40625 C 75.451522 78.65335 79.243207 71.2832 79.125 61.25 C 79.03667 53.7549 76.354469 43.53089 71.4375 33.875 C 66.520531 24.21911 59.370861 15.1444 50.28125 9.96875 L 50.03125 9.8125 z M 50.90625 11.53125 C 55.415296 14.316409 59.425544 18.125021 62.90625 22.46875 L 58.96875 25.0625 L 50.90625 11.53125 z M 49.0625 11.65625 L 41.90625 25 L 37.75 22.25 C 41.095148 18.078324 44.906797 14.445277 49.0625 11.65625 z M 50.03125 11.96875 L 58.15625 25.59375 L 50.46875 30.625 L 42.75 25.5625 L 50.03125 11.96875 z M 37.125 23.0625 L 41.21875 25.75 L 30.5 33.40625 C 32.435207 29.730452 34.645458 26.259763 37.125 23.0625 z M 63.53125 23.28125 C 65.715457 26.103005 67.68692 29.121218 69.40625 32.25 L 59.65625 25.8125 L 63.53125 23.28125 z M 42.4375 26.5625 L 49.65625 31.28125 L 39.3125 40.84375 L 42.4375 26.5625 z M 58.375 26.65625 L 61.125 40.40625 L 51.3125 31.25 L 58.375 26.65625 z M 59.40625 26.875 L 69.8125 33.71875 L 70.125 48.8125 L 62.375 41.59375 L 59.40625 26.875 z M 41.34375 26.90625 L 38.0625 42 L 29.9375 49.53125 L 29.8125 35.15625 L 41.34375 26.90625 z M 50.5 31.90625 L 61.46875 42.125 L 65.46875 62.03125 L 65.46875 62.0625 L 60.6875 74.34375 L 50.1875 76.75 L 50.03125 76.6875 L 50 76.6875 L 39.3125 73 L 34.8125 61.5 L 38.9375 42.5625 L 50.5 31.90625 z M 70.84375 35 C 75.389802 44.137528 77.938704 53.720444 78.125 60.78125 L 71.15625 49.875 L 70.84375 35 z M 28.8125 36.78125 L 28.9375 50.375 L 28.9375 50.46875 L 28.9375 50.5 L 22.15625 59.96875 C 23.024202 52.325134 25.315261 44.283653 28.8125 36.78125 z M 62.71875 43.28125 L 70.03125 50.09375 L 66.15625 60.28125 L 62.71875 43.28125 z M 37.6875 43.75 L 34.15625 59.96875 L 30.125 50.71875 L 37.6875 43.75 z M 70.71875 51.09375 L 77.84375 62.21875 L 70.28125 72.28125 L 66.53125 62.09375 L 66.53125 62.0625 L 70.71875 51.09375 z M 29.40625 51.5625 L 33.75 61.59375 L 29.53125 71.4375 L 22.3125 61.4375 L 29.40625 51.5625 z M 21.9375 62.5625 L 29.0625 72.5 L 31.21875 83.0625 C 30.607489 82.599512 30.001669 82.108374 29.4375 81.59375 C 24.546246 77.131945 21.513655 70.791337 21.9375 62.5625 z M 34.28125 62.9375 L 38.15625 72.78125 L 30.53125 71.625 L 34.28125 62.9375 z M 66 63.5 L 69.34375 72.59375 L 61.84375 74.125 L 66 63.5 z M 78.0625 63.59375 C 77.618593 72.164841 74.158657 78.428827 69.125 82.625 C 69.102832 82.64348 69.084729 82.669101 69.0625 82.6875 L 70.71875 73.3125 L 78.0625 63.59375 z M 30.125 72.59375 L 38.5625 73.84375 L 41.3125 80.84375 L 32.28125 83.09375 L 30.125 72.59375 z M 69.6875 73.53125 L 68 82.84375 L 59.1875 80.9375 L 61.40625 75.21875 L 69.6875 73.53125 z M 39.78125 74.21875 L 48.75 77.3125 L 42.28125 80.5625 L 39.78125 74.21875 z M 60.25 75.46875 L 58.25 80.625 L 51.625 77.4375 L 60.25 75.46875 z M 50.0625 77.78125 L 57.6875 81.46875 L 50.4375 88.59375 L 42.8125 81.40625 L 50.0625 77.78125 z M 41.71875 81.78125 L 41.75 81.8125 L 49.5 89.0625 C 49.345152 89.059712 49.186048 89.067402 49.03125 89.0625 C 43.148895 88.876211 37.32497 87.158158 32.59375 84.03125 L 41.71875 81.78125 z M 58.71875 81.84375 L 67.59375 83.8125 C 62.939738 87.122223 57.202534 88.843792 51.375 89.0625 L 58.71875 81.84375 z " id="path4102" style="font-size:medium;font-style:normal;font-variant:normal;font-weight:normal;font-stretch:normal;text-indent:0;text-align:start;text-decoration:none;line-height:normal;letter-spacing:normal;word-spacing:normal;text-transform:none;direction:ltr;block-progression:tb;writing-mode:lr-tb;text-anchor:start;baseline-shift:baseline;color:#000000;fill:#000000;fill-opacity:1;stroke:none;stroke-width:1;marker:none;visibility:visible;display:inline;overflow:visible;enable-background:accumulate;font-family:Sans;-inkscape-font-specification:Sans" transform="translate(0,952.36218)"/></g></svg>