<?xml version="1.0" ?><svg height="100" id="svg2" version="1.1" width="100" xmlns="http://www.w3.org/2000/svg" xmlns:cc="http://creativecommons.org/ns#" xmlns:dc="http://purl.org/dc/elements/1.1/" xmlns:inkscape="http://www.inkscape.org/namespaces/inkscape" xmlns:rdf="http://www.w3.org/1999/02/22-rdf-syntax-ns#" xmlns:sodipodi="http://sodipodi.sourceforge.net/DTD/sodipodi-0.dtd" xmlns:svg="http://www.w3.org/2000/svg"><defs id="defs4"/><g id="layer1" transform="translate(0,-952.36218)"><path d="M 42.375 10.25 C 27.47737 10.25 15.46875 22.25859 15.46875 37.15625 L 15.46875 62.8125 C 15.46875 77.7102 27.477371 89.71875 42.375 89.71875 L 57.625 89.71875 C 72.52269 89.71875 84.53125 77.7102 84.53125 62.8125 L 84.53125 37.15625 C 84.53125 22.25859 72.522691 10.25 57.625 10.25 L 42.375 10.25 z M 42.375 11.25 L 48.8125 11.25 L 31 20.15625 L 31 13.875 C 34.430876 12.204615 38.286125 11.25 42.375 11.25 z M 50.90625 11.25 L 57.625 11.25 C 61.654014 11.25 65.450755 12.187815 68.84375 13.8125 L 68.84375 20.1875 L 50.90625 11.25 z M 49.875 11.84375 L 67.5625 20.625 L 49.875 29.25 L 32.28125 20.625 L 49.875 11.84375 z M 69.84375 14.3125 C 72.558586 15.76022 74.975176 17.658101 77 19.9375 L 76.71875 19.9375 L 69.84375 19.9375 L 69.84375 14.3125 z M 30 14.375 L 30 19.9375 L 23.3125 19.9375 L 23 19.9375 C 24.988174 17.699363 27.344716 15.813153 30 14.375 z M 22.8125 20.15625 L 22.8125 20.4375 L 22.8125 29.96875 L 17.46875 29.96875 C 18.520892 26.295347 20.379323 22.957577 22.8125 20.15625 z M 77.21875 20.1875 C 79.637576 22.981919 81.483284 26.309911 82.53125 29.96875 L 77.21875 29.96875 L 77.21875 20.4375 L 77.21875 20.1875 z M 23.8125 20.9375 L 30 20.9375 L 30 29.96875 L 23.8125 29.96875 L 23.8125 20.9375 z M 69.84375 20.9375 L 76.21875 20.9375 L 76.21875 29.96875 L 69.84375 29.96875 L 69.84375 20.9375 z M 31 21.0625 L 49.15625 29.96875 L 31 29.96875 L 31 21.0625 z M 68.84375 21.0625 L 68.84375 29.96875 L 50.59375 29.96875 L 68.84375 21.0625 z M 17.21875 30.96875 L 23 30.96875 L 22.84375 31.375 L 16.46875 49.15625 L 16.46875 37.15625 C 16.46875 35.013265 16.733587 32.957332 17.21875 30.96875 z M 23.65625 30.96875 L 30 30.96875 L 30 49 L 23.78125 31.375 L 23.65625 30.96875 z M 31 30.96875 L 68.84375 30.96875 L 68.84375 68.8125 L 31 68.8125 L 31 30.96875 z M 69.84375 30.96875 L 76.375 30.96875 L 76.21875 31.375 L 69.84375 48.875 L 69.84375 30.96875 z M 77.03125 30.96875 L 82.78125 30.96875 C 83.266411 32.957332 83.53125 35.013265 83.53125 37.15625 L 83.53125 49.34375 L 77.15625 31.375 L 77.03125 30.96875 z M 23.3125 33.03125 L 29.34375 50.09375 L 22.96875 67.15625 L 17.1875 50.09375 L 23.3125 33.03125 z M 76.6875 33.03125 L 82.8125 50.28125 L 77 67.1875 L 70.46875 50.0625 L 76.6875 33.03125 z M 16.46875 51.09375 L 22.4375 68.8125 L 17.15625 68.8125 C 16.705443 66.891214 16.46875 64.875947 16.46875 62.8125 L 16.46875 51.09375 z M 30 51.21875 L 30 68.8125 L 23.40625 68.8125 L 30 51.21875 z M 69.84375 51.25 L 76.5625 68.8125 L 69.84375 68.8125 L 69.84375 51.25 z M 83.53125 51.25 L 83.53125 62.8125 C 83.53125 64.875947 83.294555 66.891214 82.84375 68.8125 L 77.5 68.8125 L 83.53125 51.25 z M 17.40625 69.8125 L 22.375 69.8125 L 22.375 79.25 L 22.375 79.3125 C 20.108432 76.563353 18.386496 73.351065 17.40625 69.8125 z M 23.375 69.8125 L 30 69.8125 L 30 78.75 L 23.375 78.75 L 23.375 69.8125 z M 31 69.8125 L 49 69.8125 L 31.40625 78.78125 L 31 79 L 31 69.8125 z M 50.71875 69.8125 L 68.84375 69.8125 L 68.84375 79.0625 L 68.3125 78.78125 L 50.71875 69.8125 z M 69.84375 69.8125 L 76.625 69.8125 L 76.625 78.65625 L 69.84375 78.65625 L 69.84375 69.8125 z M 77.625 69.8125 L 82.59375 69.8125 C 81.613508 73.351065 79.891563 76.563353 77.625 79.3125 L 77.625 79.15625 L 77.625 69.8125 z M 49.875 70.5 L 66.96875 79.21875 L 49.875 88.125 L 32.75 79.25 L 49.875 70.5 z M 68.84375 79.40625 L 68.84375 86.1875 C 65.450755 87.812178 61.654014 88.71875 57.625 88.71875 L 50.9375 88.71875 L 68.3125 79.6875 L 68.84375 79.40625 z M 31 79.46875 L 31.40625 79.6875 L 48.78125 88.71875 L 42.375 88.71875 C 38.286124 88.71875 34.430876 87.795378 31 86.125 L 31 79.46875 z M 69.84375 79.65625 L 77.125 79.65625 L 77.3125 79.65625 C 75.22466 82.097877 72.703587 84.162463 69.84375 85.6875 L 69.84375 79.65625 z M 22.75 79.75 L 22.875 79.75 L 30 79.75 L 30 85.625 C 27.233361 84.126541 24.787815 82.112366 22.75 79.75 z " id="path4377" style="font-size:medium;font-style:normal;font-variant:normal;font-weight:normal;font-stretch:normal;text-indent:0;text-align:start;text-decoration:none;line-height:normal;letter-spacing:normal;word-spacing:normal;text-transform:none;direction:ltr;block-progression:tb;writing-mode:lr-tb;text-anchor:start;baseline-shift:baseline;color:#000000;fill:#000000;fill-opacity:1;stroke:none;stroke-width:1;marker:none;visibility:visible;display:inline;overflow:visible;enable-background:accumulate;font-family:Sans;-inkscape-font-specification:Sans" transform="translate(0,952.36218)"/></g></svg>