<?xml version="1.0" ?><svg height="100" id="svg2" version="1.1" width="100" xmlns="http://www.w3.org/2000/svg" xmlns:cc="http://creativecommons.org/ns#" xmlns:dc="http://purl.org/dc/elements/1.1/" xmlns:inkscape="http://www.inkscape.org/namespaces/inkscape" xmlns:rdf="http://www.w3.org/1999/02/22-rdf-syntax-ns#" xmlns:sodipodi="http://sodipodi.sourceforge.net/DTD/sodipodi-0.dtd" xmlns:svg="http://www.w3.org/2000/svg"><defs id="defs4"/><g id="layer1" transform="translate(0,-952.36218)"><path d="M 50.15625 9.65625 L 49.84375 9.84375 C 34.054077 20.85253 27.250157 35.62333 27.90625 50.28125 C 28.562343 64.93925 36.642954 79.46405 50.4375 90.09375 L 50.75 90.34375 L 51.0625 90.09375 C 57.249202 85.340992 62.240562 79.562672 65.8125 73.1875 L 66.15625 73.09375 L 66.1875 72.75 C 66.195882 72.664277 66.211073 72.585228 66.21875 72.5 C 69.776941 65.917293 71.807325 58.718555 72.09375 51.40625 C 72.669478 36.70821 66.091804 21.53487 50.4375 9.875 L 50.15625 9.65625 z M 51.21875 11.78125 C 54.226745 14.148971 56.865335 16.648884 59.15625 19.25 L 56.84375 21.5625 L 51.21875 11.78125 z M 48.96875 11.8125 L 42.9375 21.46875 L 40.6875 19.1875 C 43.063287 16.593929 45.826717 14.137905 48.96875 11.8125 z M 50.125 11.875 L 56.125 22.28125 L 49.9375 28.46875 L 43.65625 22.1875 L 50.125 11.875 z M 40.03125 19.9375 L 42.1875 22.09375 L 36.40625 24.5625 C 37.488137 22.987045 38.704208 21.443575 40.03125 19.9375 z M 59.84375 19.96875 C 61.146265 21.503164 62.307996 23.092398 63.375 24.6875 L 57.65625 22.15625 L 59.84375 19.96875 z M 42.9375 22.84375 L 49.3125 29.1875 L 37.34375 41.15625 C 37.199846 40.699429 37.063238 40.225617 36.9375 39.75 C 35.818003 35.51539 35.445732 30.59653 35.875 25.875 L 42.9375 22.84375 z M 56.90625 22.90625 L 63.625 25.875 C 64.061212 30.60711 63.84332 35.54609 62.875 39.78125 C 62.778312 40.204139 62.67378 40.623551 62.5625 41.03125 L 50.6875 29.125 L 56.90625 22.90625 z M 64.75 26.84375 C 69.087654 34.127885 71.114243 41.907042 71.125 49.59375 L 63.34375 41.8125 C 63.516494 41.222378 63.701915 40.620345 63.84375 40 C 64.769681 35.95024 65.069766 31.348642 64.75 26.84375 z M 34.78125 27.125 C 34.519886 31.553081 34.919976 36.064152 35.96875 40.03125 C 36.141464 40.68456 36.356043 41.318994 36.5625 41.9375 L 28.90625 49.59375 C 28.682545 41.917554 30.556782 34.252136 34.78125 27.125 z M 49.96875 30.34375 C 54.986332 35.18574 57.235675 42.57308 57.0625 50 C 56.889934 57.4008 54.338789 64.7283 50 69.4375 C 45.364775 65.094295 42.783035 57.614142 42.65625 50.0625 L 42.8125 49.875 L 42.65625 49.75 C 42.59616 42.08606 45.069123 34.55142 49.96875 30.34375 z M 54.4375 34.375 L 62.21875 42.15625 C 61.249385 45.197828 59.848895 47.687962 58.0625 49.25 C 58.075165 43.98845 56.94266 38.741956 54.4375 34.375 z M 45.09375 34.84375 C 42.87129 38.892347 41.764576 43.857393 41.6875 48.90625 C 40.072338 47.342882 38.720059 45.008171 37.71875 42.21875 L 45.09375 34.84375 z M 63 42.9375 L 70.0625 50 L 63.1875 56.875 C 61.855075 54.299719 60.268606 52.033075 58.6875 50 C 60.58824 48.354859 61.99723 45.892153 63 42.9375 z M 36.90625 43.03125 C 38.016444 45.954438 39.542314 48.370076 41.4375 50 C 39.801954 52.1276 38.307297 54.507404 37.15625 57.21875 L 29.9375 50 L 36.90625 43.03125 z M 28.90625 50.375 L 36.75 58.21875 C 35.418875 61.730265 34.654917 65.822816 34.90625 70.8125 C 31.305755 64.300837 29.238821 57.349886 28.90625 50.375 z M 71.09375 50.40625 C 71.088165 50.731963 71.106491 51.049729 71.09375 51.375 C 70.842707 57.784012 69.166519 64.11008 66.3125 70 C 66.364873 65.190123 65.298215 61.209824 63.6875 57.8125 L 71.09375 50.40625 z M 58.03125 50.78125 C 59.609516 52.820353 61.192077 55.050236 62.46875 57.59375 L 53.34375 66.71875 C 56.14478 62.227288 57.774126 56.535029 58.03125 50.78125 z M 41.6875 51.34375 C 41.952987 56.609237 43.359839 61.781622 45.84375 65.90625 L 37.90625 57.96875 C 38.908698 55.485781 40.226903 53.330843 41.6875 51.34375 z M 62.9375 58.5625 C 64.63927 62.293341 65.647929 66.695042 65.1875 72.21875 C 65.169512 72.251641 65.143065 72.27964 65.125 72.3125 L 55.15625 75.15625 L 50.75 70.75 L 62.9375 58.5625 z M 37.53125 59 L 49.21875 70.6875 L 44.84375 75.0625 L 36.0625 72.375 C 35.575555 66.992216 36.224871 62.664516 37.53125 59 z M 49.9375 71.375 L 50 71.46875 L 50.03125 71.46875 L 54.5625 75.96875 L 50.65625 88.21875 L 45.65625 75.65625 L 49.9375 71.375 z M 36.5 73.53125 L 44.03125 75.875 L 40.65625 79.25 C 39.140388 77.400689 37.736083 75.488593 36.5 73.53125 z M 64.40625 73.59375 C 63.110297 75.799154 61.637734 77.933027 60 79.96875 L 56 75.96875 L 64.40625 73.59375 z M 44.875 76.4375 L 49.5625 88.09375 C 46.487134 85.579817 43.741706 82.86445 41.3125 80 L 44.875 76.4375 z M 55.34375 76.75 L 59.375 80.75 C 57.109978 83.461326 54.524653 85.971848 51.6875 88.28125 L 55.34375 76.75 z " id="path4050" style="font-size:medium;font-style:normal;font-variant:normal;font-weight:normal;font-stretch:normal;text-indent:0;text-align:start;text-decoration:none;line-height:normal;letter-spacing:normal;word-spacing:normal;text-transform:none;direction:ltr;block-progression:tb;writing-mode:lr-tb;text-anchor:start;baseline-shift:baseline;color:#000000;fill:#000000;fill-opacity:1;stroke:none;stroke-width:1;marker:none;visibility:visible;display:inline;overflow:visible;enable-background:accumulate;font-family:Sans;-inkscape-font-specification:Sans" transform="translate(0,952.36218)"/></g></svg>