<?xml version="1.0" ?><svg height="100" id="svg2" version="1.1" width="100" xmlns="http://www.w3.org/2000/svg" xmlns:cc="http://creativecommons.org/ns#" xmlns:dc="http://purl.org/dc/elements/1.1/" xmlns:inkscape="http://www.inkscape.org/namespaces/inkscape" xmlns:rdf="http://www.w3.org/1999/02/22-rdf-syntax-ns#" xmlns:sodipodi="http://sodipodi.sourceforge.net/DTD/sodipodi-0.dtd" xmlns:svg="http://www.w3.org/2000/svg"><defs id="defs4"/><g id="layer1" transform="translate(0,-952.36218)"><path d="M 9.96875 9.9375 L 9.96875 10.4375 L 9.96875 89.53125 L 9.96875 90.03125 L 10.46875 90.03125 L 89.53125 90.03125 L 90.03125 90.03125 L 90.03125 89.53125 L 90.03125 10.4375 L 90.03125 9.9375 L 89.53125 9.9375 L 10.46875 9.9375 L 9.96875 9.9375 z M 12.625 10.9375 L 87.375 10.9375 L 72.09375 17.75 L 71.59375 17.75 L 27.875 17.75 L 12.625 10.9375 z M 11.5625 11.59375 L 27.3125 18.625 L 27.3125 32.03125 L 21 33.25 L 11.5625 11.59375 z M 88.40625 11.59375 L 78.75 33.21875 L 72.03125 31.9375 L 72.09375 18.875 L 88.40625 11.59375 z M 89.03125 12.625 L 89.03125 87.375 L 79.46875 65.90625 L 79.53125 33.9375 L 89.03125 12.625 z M 10.96875 12.65625 L 20.5 34.59375 L 20.09375 66.3125 L 10.96875 87.3125 L 10.96875 12.65625 z M 30.125 18.75 L 69.875 18.75 L 50 27.625 L 30.125 18.75 z M 28.3125 19.0625 L 48.3125 27.96875 L 28.3125 31.84375 L 28.3125 19.0625 z M 71.09375 19.3125 L 71.03125 31.71875 L 51.59375 28 L 71.09375 19.3125 z M 49.84375 28.6875 A 0.50005 0.50005 0 0 0 49.875 28.6875 L 49.9375 28.6875 L 71.03125 32.75 L 70.875 67.03125 L 49.71875 70.96875 L 28.3125 67.59375 L 28.3125 32.875 L 49.84375 28.6875 z M 72.03125 32.9375 L 78.34375 34.15625 L 71.96875 48.40625 L 72.03125 32.9375 z M 27.3125 33.0625 L 27.3125 47.78125 L 21.5 34.40625 L 21.5 34.1875 L 27.3125 33.0625 z M 78.53125 36.1875 L 78.46875 63.6875 L 72.375 50 L 78.53125 36.1875 z M 21.46875 36.8125 L 27.1875 50 L 21.125 63.9375 L 21.46875 36.8125 z M 71.9375 51.53125 L 78.25 65.65625 L 71.875 66.84375 L 71.9375 51.53125 z M 27.3125 52.1875 L 27.3125 67.4375 L 21.125 66.4375 L 27.3125 52.1875 z M 78.6875 66.625 L 88.40625 88.40625 L 71.8125 81 L 71.875 67.875 L 78.6875 66.625 z M 20.6875 67.40625 L 27.3125 68.4375 L 27.3125 81.375 L 11.5625 88.40625 L 20.6875 67.40625 z M 70.875 68.0625 L 70.8125 80.53125 L 51.0625 71.71875 L 70.875 68.0625 z M 28.3125 68.59375 L 48.75 71.8125 L 28.3125 80.9375 L 28.3125 68.59375 z M 50 72.34375 L 69.46875 81.03125 L 30.53125 81.03125 L 50 72.34375 z M 28.3125 82.03125 L 71.3125 82.03125 L 71.6875 82.03125 L 87.375 89.03125 L 12.625 89.03125 L 28.3125 82.03125 z " id="path3846" style="font-size:medium;font-style:normal;font-variant:normal;font-weight:normal;font-stretch:normal;text-indent:0;text-align:start;text-decoration:none;line-height:normal;letter-spacing:normal;word-spacing:normal;text-transform:none;direction:ltr;block-progression:tb;writing-mode:lr-tb;text-anchor:start;baseline-shift:baseline;color:#000000;fill:#000000;fill-opacity:1;stroke:none;stroke-width:1;marker:none;visibility:visible;display:inline;overflow:visible;enable-background:accumulate;font-family:Sans;-inkscape-font-specification:Sans" transform="translate(0,952.36218)"/></g></svg>