<?xml version="1.0" ?><svg height="100" id="svg2" version="1.1" width="100" xmlns="http://www.w3.org/2000/svg" xmlns:cc="http://creativecommons.org/ns#" xmlns:dc="http://purl.org/dc/elements/1.1/" xmlns:inkscape="http://www.inkscape.org/namespaces/inkscape" xmlns:rdf="http://www.w3.org/1999/02/22-rdf-syntax-ns#" xmlns:sodipodi="http://sodipodi.sourceforge.net/DTD/sodipodi-0.dtd" xmlns:svg="http://www.w3.org/2000/svg"><defs id="defs4"/><g id="layer1" transform="translate(0,-952.36218)"><path d="M 50 9.90625 C 27.86201 9.90625 9.90625 27.86191 9.90625 50 C 9.90625 72.138 27.86201 90.09375 50 90.09375 C 72.13807 90.09375 90.09375 72.138 90.09375 50 C 90.09375 27.86191 72.13807 9.90625 50 9.90625 z M 49.46875 10.9375 L 39.53125 23.6875 L 35.46875 13.71875 C 39.805528 11.981312 44.525655 11.004037 49.46875 10.9375 z M 50.9375 10.9375 C 55.579992 11.047698 60.019562 11.970577 64.125 13.5625 L 60.34375 22.8125 L 50.9375 10.9375 z M 50.21875 11.625 L 59.78125 23.71875 L 49.3125 28.25 L 40.1875 24.5 L 50.21875 11.625 z M 65.0625 13.9375 C 69.7742 15.905898 74.030824 18.765343 77.59375 22.3125 L 61.28125 23.15625 L 65.0625 13.9375 z M 34.5625 14.09375 L 38.5625 23.875 L 22.5625 22.15625 C 25.998101 18.77358 30.068081 16.026897 34.5625 14.09375 z M 22.4375 23.125 L 39 24.9375 L 34.875 34.53125 L 24.125 39.1875 L 22.4375 23.125 z M 21.4375 23.3125 L 23.09375 38.96875 L 13.8125 35.15625 C 15.624922 30.741956 18.229827 26.742652 21.4375 23.3125 z M 77.8125 23.3125 L 76.09375 39.28125 L 65.625 34.96875 L 60.96875 24.15625 L 77.8125 23.3125 z M 78.78125 23.53125 C 81.934977 26.957919 84.474273 30.955545 86.25 35.34375 L 77.09375 39.125 L 78.78125 23.53125 z M 60.09375 24.65625 L 64.28125 34.40625 L 50.59375 28.78125 L 60.09375 24.65625 z M 39.875 25.46875 L 48.03125 28.8125 L 36.21875 33.9375 L 39.875 25.46875 z M 49.3125 29.34375 L 64.875 35.75 L 71.15625 50.375 L 64.8125 64.9375 L 49.09375 71.3125 L 35.1875 65.09375 L 29.03125 50.65625 L 35.65625 35.25 L 49.3125 29.34375 z M 34.28125 35.84375 L 28.46875 49.375 L 24.53125 40.09375 L 34.28125 35.84375 z M 13.46875 36.0625 L 22.71875 39.90625 L 10.90625 49.6875 C 10.944178 44.888592 11.850986 40.300655 13.46875 36.0625 z M 66.1875 36.28125 L 75.59375 40.15625 L 71.6875 49.125 L 66.1875 36.28125 z M 86.59375 36.28125 C 88.175029 40.497619 89.071156 45.047894 89.09375 49.8125 L 77.40625 40.0625 L 86.59375 36.28125 z M 23.625 40.46875 L 27.9375 50.59375 L 23.875 60.0625 L 11.71875 50.375 L 23.625 40.46875 z M 76.46875 40.59375 L 88.28125 50.46875 L 76.53125 60.34375 L 72.25 50.34375 L 76.46875 40.59375 z M 10.9375 51.03125 L 22.96875 60.625 L 13.6875 64.46875 C 12.02428 60.293931 11.059348 55.771023 10.9375 51.03125 z M 89.0625 51.09375 C 88.933319 55.831823 87.981876 60.359421 86.3125 64.53125 L 77.46875 60.875 L 89.0625 51.09375 z M 71.6875 51.59375 L 75.5625 60.59375 L 66.15625 64.40625 L 71.6875 51.59375 z M 28.5 51.90625 L 33.84375 64.5 L 24.8125 60.4375 L 28.5 51.90625 z M 24.46875 61.375 L 34.4375 65.84375 L 38.625 75.6875 L 23.21875 77.5 L 24.46875 61.375 z M 76.09375 61.46875 L 77.25 77.3125 L 60.8125 76.6875 L 65.5625 65.71875 L 76.09375 61.46875 z M 23.4375 61.53125 L 22.21875 77.53125 C 18.778474 74.059584 15.982686 69.935473 14.03125 65.375 L 23.4375 61.53125 z M 77.125 61.84375 L 85.9375 65.4375 C 84.073909 69.771294 81.436296 73.706783 78.21875 77.0625 L 77.125 61.84375 z M 64.25 66.28125 L 59.9375 76.1875 L 50.34375 71.90625 L 64.25 66.28125 z M 35.75 66.4375 L 47.8125 71.84375 L 39.5 75.21875 L 35.75 66.4375 z M 49.0625 72.40625 L 59.59375 77.125 L 50.71875 88.53125 L 39.90625 76.125 L 49.0625 72.40625 z M 38.25 76.75 L 34.5 85.90625 C 30.320196 84.099438 26.521998 81.572509 23.25 78.5 L 38.25 76.75 z M 39.25 76.96875 L 49.875 89.09375 C 44.758122 89.077562 39.880549 88.083046 35.40625 86.28125 L 39.25 76.96875 z M 61.15625 77.6875 L 76.9375 78.3125 C 73.429628 81.651201 69.307741 84.360526 64.75 86.21875 L 61.15625 77.6875 z M 60.21875 77.96875 L 63.8125 86.59375 C 59.980766 88.041662 55.860548 88.892426 51.5625 89.0625 L 60.21875 77.96875 z " id="path3782" style="font-size:medium;font-style:normal;font-variant:normal;font-weight:normal;font-stretch:normal;text-indent:0;text-align:start;text-decoration:none;line-height:normal;letter-spacing:normal;word-spacing:normal;text-transform:none;direction:ltr;block-progression:tb;writing-mode:lr-tb;text-anchor:start;baseline-shift:baseline;color:#000000;fill:#000000;fill-opacity:1;stroke:none;stroke-width:1;marker:none;visibility:visible;display:inline;overflow:visible;enable-background:accumulate;font-family:Sans;-inkscape-font-specification:Sans" transform="translate(0,952.36218)"/></g></svg>