<?xml version="1.0" ?><svg height="100" id="svg2" version="1.1" width="100" xmlns="http://www.w3.org/2000/svg" xmlns:cc="http://creativecommons.org/ns#" xmlns:dc="http://purl.org/dc/elements/1.1/" xmlns:inkscape="http://www.inkscape.org/namespaces/inkscape" xmlns:rdf="http://www.w3.org/1999/02/22-rdf-syntax-ns#" xmlns:sodipodi="http://sodipodi.sourceforge.net/DTD/sodipodi-0.dtd" xmlns:svg="http://www.w3.org/2000/svg"><defs id="defs4"/><g id="layer1" transform="translate(0,-952.36218)"><path d="M 23.40625 10.28125 L 23.25 10.40625 L 12.0625 21.59375 L 11.90625 21.75 L 11.90625 21.96875 L 11.8125 76.84375 L 11.8125 77.03125 L 11.96875 77.1875 L 24.34375 89.5625 L 24.5 89.6875 L 24.6875 89.6875 L 75.25 89.6875 L 75.4375 89.6875 L 75.59375 89.5625 L 88.125 77.03125 L 88.28125 76.875 L 88.28125 76.6875 L 88.28125 21.65625 L 88.28125 21.4375 L 88.09375 21.28125 L 75.25 10.40625 L 75.09375 10.28125 L 74.90625 10.28125 L 23.59375 10.28125 L 23.40625 10.28125 z M 24.59375 11.28125 L 74.09375 11.28125 C 72.735726 14.229658 71.026585 16.803619 69.03125 18.96875 L 30.125 18.96875 C 28.056028 16.827965 26.192389 14.264073 24.59375 11.28125 z M 23.59375 11.5 C 25.16197 14.471401 26.961528 17.070427 29 19.25 L 23.1875 25.03125 C 19.875215 24.151249 16.556358 23.100605 13.1875 21.90625 L 23.59375 11.5 z M 75.0625 11.5625 L 87.0625 21.71875 C 87.031071 21.740403 87.000083 21.759589 86.96875 21.78125 C 83.238237 22.844714 79.68618 23.77414 76.28125 24.5625 L 70.1875 19.1875 C 72.105169 17.012918 73.748287 14.452813 75.0625 11.5625 z M 31.125 19.96875 L 68.0625 19.96875 C 63.140735 24.795304 56.799129 27.382994 50.3125 27.53125 C 43.594321 27.684798 36.724999 25.255015 31.125 19.96875 z M 69.90625 20.28125 L 75.09375 24.84375 C 73.326958 25.240763 71.594869 25.612734 69.90625 25.9375 L 69.90625 20.28125 z M 29.28125 20.40625 L 29.375 26.46875 C 27.690222 26.13212 26.016671 25.768325 24.34375 25.34375 L 29.28125 20.40625 z M 30.28125 20.53125 C 34.836717 24.88246 40.242881 27.426334 45.75 28.25 C 40.400008 28.157171 35.337372 27.593115 30.375 26.65625 L 30.28125 20.53125 z M 68.90625 20.5625 L 68.90625 26.125 C 64.174747 27.00248 59.720873 27.57228 55.5 27.90625 C 60.434963 26.81848 65.099211 24.348245 68.90625 20.5625 z M 87.28125 22.8125 L 87.28125 75.5625 C 84.782042 74.097539 82.232787 72.167189 79.90625 69.84375 L 79.90625 28.84375 C 81.965784 26.819991 84.424679 24.805793 87.28125 22.8125 z M 12.90625 23.34375 C 15.777796 25.130716 18.22733 27.024673 20.28125 29 L 20.1875 69.8125 C 17.96761 71.972194 15.475703 73.77334 12.8125 75.0625 L 12.90625 23.34375 z M 84.6875 23.4375 C 82.864804 24.813448 81.212762 26.194876 79.75 27.59375 L 79.71875 27.5625 L 77.21875 25.34375 C 79.625947 24.77762 82.125708 24.13771 84.6875 23.4375 z M 15.1875 23.65625 C 17.600844 24.466774 20.012188 25.166276 22.40625 25.8125 L 20.40625 27.8125 C 18.861158 26.377739 17.144212 24.986502 15.1875 23.65625 z M 76 25.65625 L 78.90625 28.1875 L 78.90625 28.4375 C 73.826786 33.552482 71.018553 38.768662 69.90625 43.8125 L 69.90625 26.90625 C 71.887012 26.528641 73.913912 26.132629 76 25.65625 z M 23.53125 26.125 C 25.469205 26.625959 27.420184 27.084325 29.375 27.46875 L 29.59375 42.59375 C 28.384562 37.793354 25.720958 33.012695 21.28125 28.625 L 21.28125 28.375 L 23.53125 26.125 z M 68.90625 27.09375 L 68.90625 70.625 C 62.542341 69.578705 56.001738 69.117645 49.5 69.21875 C 43.217589 69.316396 36.99016 69.934948 30.96875 70.96875 L 30.375 27.65625 C 41.899673 29.795667 53.995159 29.83426 68.90625 27.09375 z M 78.90625 29.875 L 78.90625 68.78125 C 75.115111 64.699823 72.03227 59.601942 70.84375 54 C 69.260603 46.53803 70.986799 38.172885 78.90625 29.875 z M 21.28125 30 C 28.1606 37.146932 30.178185 45.189194 29.125 52.625 C 28.259532 58.735447 25.296024 64.432459 21.1875 68.8125 L 21.28125 30 z M 69.90625 54.34375 C 71.241306 60.49108 74.7036 66.001277 78.90625 70.28125 L 78.90625 70.53125 L 77.09375 72.34375 C 74.731722 71.73384 72.334317 71.206236 69.90625 70.78125 L 69.90625 54.34375 z M 29.75 54.84375 L 29.96875 71.15625 C 27.652463 71.574137 25.360502 72.050986 23.125 72.59375 L 21.1875 70.65625 L 21.1875 70.28125 C 25.338283 66.144534 28.464674 60.743485 29.75 54.84375 z M 54.90625 70.3125 C 59.608283 70.460448 64.314119 70.893113 68.90625 71.65625 L 68.90625 79.1875 C 64.532487 74.560833 59.781352 71.570614 54.90625 70.3125 z M 44.15625 70.4375 C 39.676427 71.73022 35.257543 74.604316 31.09375 79.125 L 31 71.96875 C 35.286112 71.230288 39.709277 70.708056 44.15625 70.4375 z M 50.46875 70.625 C 56.59842 70.853603 62.703532 74.072482 68.28125 80 L 31.65625 80 C 37.663542 73.371786 44.112628 70.387951 50.46875 70.625 z M 79.75 71.09375 C 80.967689 72.262536 82.242923 73.324913 83.53125 74.28125 C 81.778757 73.674906 79.99353 73.147977 78.1875 72.65625 L 79.75 71.09375 z M 20.28125 71.1875 L 20.34375 71.21875 L 22 72.875 C 19.80087 73.432781 17.657685 74.047143 15.5625 74.71875 C 17.225309 73.707763 18.812479 72.53719 20.28125 71.1875 z M 69.90625 71.8125 C 72.058971 72.193463 74.182365 72.629161 76.28125 73.15625 L 69.90625 79.5625 L 69.90625 71.8125 z M 30 72.15625 L 30.09375 79.5625 L 23.96875 73.4375 C 25.954467 72.967498 27.950318 72.527481 30 72.15625 z M 77.375 73.46875 C 80.696246 74.348921 83.941474 75.384423 87.0625 76.65625 L 75.65625 88.09375 C 73.925468 85.313349 72.116857 82.80716 70.21875 80.625 L 77.375 73.46875 z M 22.8125 73.6875 L 29.78125 80.65625 C 27.938413 82.845375 26.154958 85.34933 24.4375 88.21875 L 12.875 76.65625 C 16.045183 75.528968 19.372452 74.539721 22.8125 73.6875 z M 30.78125 81 L 69.1875 81 C 71.161018 83.225166 73.071923 85.781322 74.875 88.6875 L 25.3125 88.6875 C 27.07682 85.742294 28.906367 83.197739 30.78125 81 z " id="path4233" style="font-size:medium;font-style:normal;font-variant:normal;font-weight:normal;font-stretch:normal;text-indent:0;text-align:start;text-decoration:none;line-height:normal;letter-spacing:normal;word-spacing:normal;text-transform:none;direction:ltr;block-progression:tb;writing-mode:lr-tb;text-anchor:start;baseline-shift:baseline;color:#000000;fill:#000000;fill-opacity:1;stroke:none;stroke-width:1;marker:none;visibility:visible;display:inline;overflow:visible;enable-background:accumulate;font-family:Sans;-inkscape-font-specification:Sans" transform="translate(0,952.36218)"/></g></svg>