<?xml version="1.0" ?><svg height="100" id="svg2" version="1.1" width="100" xmlns="http://www.w3.org/2000/svg" xmlns:cc="http://creativecommons.org/ns#" xmlns:dc="http://purl.org/dc/elements/1.1/" xmlns:inkscape="http://www.inkscape.org/namespaces/inkscape" xmlns:rdf="http://www.w3.org/1999/02/22-rdf-syntax-ns#" xmlns:sodipodi="http://sodipodi.sourceforge.net/DTD/sodipodi-0.dtd" xmlns:svg="http://www.w3.org/2000/svg"><defs id="defs4"/><g id="layer1" transform="translate(0,-952.36218)"><path d="M 50.0625 9.875 C 42.387139 9.875 35.467268 14.42314 30.5 21.6875 C 25.532732 28.95186 22.46875 38.97184 22.46875 50 C 22.46875 61.0282 25.532732 71.01695 30.5 78.28125 C 35.467268 85.54565 42.387139 90.09375 50.0625 90.09375 C 57.737812 90.09375 64.65772 85.54565 69.625 78.28125 C 69.693642 78.180866 69.7446 78.07017 69.8125 77.96875 A 0.50005 0.50005 0 0 0 70.03125 77.65625 C 74.750787 70.448983 77.625 60.716208 77.625 50 C 77.625 38.97184 74.59228 28.95186 69.625 21.6875 C 64.65772 14.42314 57.737812 9.875 50.0625 9.875 z M 49.40625 10.90625 L 42.6875 23.1875 L 40.09375 13.75 C 42.986221 12.020833 46.127509 11.025496 49.40625 10.90625 z M 51 10.90625 C 54.146259 11.069677 57.156588 12.067172 59.9375 13.71875 L 57.4375 22.75 L 51 10.90625 z M 50.1875 11.53125 L 56.9375 23.875 L 49.8125 28.21875 L 43.1875 24.34375 L 50.1875 11.53125 z M 60.8125 14.25 C 63.7886 16.202853 66.486454 18.925243 68.78125 22.28125 C 68.966061 22.551525 69.133087 22.846815 69.3125 23.125 L 58.25 23.53125 L 60.8125 14.25 z M 39.21875 14.3125 L 41.8125 23.84375 L 31.21875 22.4375 C 31.252335 22.387856 31.278737 22.330627 31.3125 22.28125 C 33.585575 18.956999 36.268792 16.261622 39.21875 14.3125 z M 31.09375 23.40625 L 41.8125 24.8125 L 38.96875 34.8125 L 32.4375 38.8125 L 31.09375 23.40625 z M 69.375 24.125 L 68.25 39 L 61.4375 35 L 58.125 24.5 L 69.375 24.125 z M 30.15625 24.15625 L 31.4375 38.65625 L 25.375 35.5 C 26.517647 31.311375 28.160096 27.47851 30.15625 24.15625 z M 70.3125 24.75 C 72.077767 27.812102 73.561175 31.29378 74.625 35.0625 L 69.28125 38.78125 L 70.3125 24.75 z M 57.1875 24.90625 L 60.125 34.25 L 50.8125 28.78125 L 57.1875 24.90625 z M 42.71875 25.25 L 48.8125 28.8125 L 40.21875 34.0625 L 42.71875 25.25 z M 49.8125 29.40625 L 60.59375 35.6875 L 65.03125 49.8125 L 60.1875 65.0625 L 49.9375 71.1875 L 39.84375 65.09375 L 35.65625 50.21875 L 39.84375 35.46875 L 49.8125 29.40625 z M 74.875 36.09375 C 75.936775 40.179103 76.559986 44.574363 76.625 49.1875 L 69.46875 39.84375 L 74.875 36.09375 z M 38.59375 36.21875 L 35.15625 48.375 L 32.75 39.78125 L 38.59375 36.21875 z M 61.90625 36.4375 L 68.125 40.09375 L 65.5625 48.125 L 61.90625 36.4375 z M 25.09375 36.5 L 31.28125 39.71875 L 23.46875 49.25 C 23.527037 44.769533 24.092595 40.487789 25.09375 36.5 z M 31.9375 40.5625 L 34.625 50.21875 L 31.875 59.96875 L 23.78125 50.5 L 31.9375 40.5625 z M 68.96875 40.78125 L 76.375 50.46875 L 69.1875 59.59375 L 66.09375 49.8125 L 68.96875 40.78125 z M 65.5625 51.5 L 68.3125 60.21875 L 61.46875 64.3125 L 65.5625 51.5 z M 23.5 51.6875 L 31.28125 60.84375 L 25.5 65.09375 C 24.316611 60.941887 23.636571 56.424066 23.5 51.6875 z M 76.59375 51.78125 C 76.456326 56.296472 75.811665 60.606103 74.71875 64.59375 L 69.84375 60.375 L 76.59375 51.78125 z M 35.15625 52.0625 L 38.59375 64.34375 L 32.6875 60.78125 L 35.15625 52.0625 z M 68.65625 61.1875 L 69.03125 77 L 57.84375 75.71875 L 61.03125 65.75 L 68.65625 61.1875 z M 69.65625 61.53125 L 74.40625 65.625 C 73.297036 69.358191 71.801724 72.798675 70 75.8125 L 69.65625 61.53125 z M 32.4375 61.84375 L 39 65.78125 L 41.8125 75.84375 L 31.40625 77 L 32.4375 61.84375 z M 31.46875 61.9375 L 30.46875 76.40625 C 28.578431 73.372 26.982713 69.897411 25.8125 66.09375 L 31.46875 61.9375 z M 59.71875 66.5 L 56.90625 75.40625 L 50.90625 71.78125 L 59.71875 66.5 z M 40.25 66.53125 L 48.96875 71.78125 L 42.75 75.5 L 40.25 66.53125 z M 49.9375 72.375 L 56.65625 76.4375 L 50.1875 88.5625 L 43.15625 76.40625 L 49.9375 72.375 z M 58.1875 76.75 L 68.625 77.9375 C 66.412625 81.122299 63.836014 83.731605 61 85.625 L 58.1875 76.75 z M 41.5625 76.875 L 38.8125 85.4375 C 36.099393 83.572807 33.628972 81.051843 31.5 78 L 41.5625 76.875 z M 42.5 77.3125 L 49.34375 89.0625 C 45.94031 88.927822 42.699541 87.856609 39.71875 86 L 42.5 77.3125 z M 57.3125 77.3125 L 60.15625 86.15625 C 57.334371 87.867958 54.266863 88.886039 51.0625 89.0625 L 57.3125 77.3125 z " id="path3974" style="font-size:medium;font-style:normal;font-variant:normal;font-weight:normal;font-stretch:normal;text-indent:0;text-align:start;text-decoration:none;line-height:normal;letter-spacing:normal;word-spacing:normal;text-transform:none;direction:ltr;block-progression:tb;writing-mode:lr-tb;text-anchor:start;baseline-shift:baseline;color:#000000;fill:#000000;fill-opacity:1;stroke:none;stroke-width:1;marker:none;visibility:visible;display:inline;overflow:visible;enable-background:accumulate;font-family:Sans;-inkscape-font-specification:Sans" transform="translate(0,952.36218)"/></g></svg>