<?xml version="1.0" ?><svg height="100" id="svg2" version="1.1" width="100" xmlns="http://www.w3.org/2000/svg" xmlns:cc="http://creativecommons.org/ns#" xmlns:dc="http://purl.org/dc/elements/1.1/" xmlns:inkscape="http://www.inkscape.org/namespaces/inkscape" xmlns:rdf="http://www.w3.org/1999/02/22-rdf-syntax-ns#" xmlns:sodipodi="http://sodipodi.sourceforge.net/DTD/sodipodi-0.dtd" xmlns:svg="http://www.w3.org/2000/svg"><defs id="defs4"/><g id="layer1" transform="translate(0,-952.36218)"><path d="M 21.3125 10.4375 L 21.15625 10.59375 L 10.5625 21.3125 L 10.40625 21.46875 L 10.40625 21.6875 L 10.40625 76.53125 L 10.40625 76.75 L 10.5625 76.875 L 23.25 89.5625 L 23.375 89.71875 L 23.59375 89.71875 L 74.5625 89.71875 L 74.75 89.71875 L 74.90625 89.59375 L 89.5 77.0625 L 89.6875 76.90625 L 89.6875 76.65625 L 89.6875 21.84375 L 89.6875 21.59375 L 89.46875 21.4375 L 89.125 21.1875 L 88.90625 20.875 L 88.8125 20.9375 L 75.15625 10.5625 L 75 10.4375 L 74.84375 10.4375 L 21.53125 10.4375 L 21.3125 10.4375 z M 22.90625 11.4375 L 73.90625 11.4375 L 70.46875 16.9375 L 26.9375 16.9375 L 22.90625 11.4375 z M 21.71875 11.46875 L 25.875 17.125 L 17.15625 25.9375 L 11.46875 21.84375 L 21.71875 11.46875 z M 74.9375 11.65625 L 88 21.53125 L 82.375 25.6875 L 71.40625 17.34375 L 74.9375 11.65625 z M 27.6875 17.9375 L 69.84375 17.9375 L 66.1875 23.8125 L 32 23.8125 L 27.6875 17.9375 z M 26.46875 17.96875 L 30.90625 23.96875 L 24.0625 30.90625 L 18 26.53125 L 26.46875 17.96875 z M 70.875 18.1875 L 81.5625 26.28125 L 75.59375 30.71875 L 67.09375 24.25 L 70.875 18.1875 z M 88.6875 22.28125 L 88.6875 75.34375 L 83.1875 71.65625 L 83.1875 26.53125 L 83.1875 26.34375 L 88.6875 22.28125 z M 11.40625 23.03125 L 16.90625 26.96875 L 16.90625 71.90625 L 11.40625 75.4375 L 11.40625 23.03125 z M 31.5 24.8125 L 35.375 30.09375 L 30.21875 35.3125 L 24.90625 31.5 L 31.5 24.8125 z M 32.75 24.8125 L 65.5625 24.8125 L 62.375 29.9375 L 36.5 29.9375 L 32.75 24.8125 z M 66.5625 25.09375 L 74.78125 31.3125 L 69.5625 35.15625 L 63.28125 30.375 L 66.5625 25.09375 z M 82.1875 27.09375 L 82.1875 71 L 76.3125 67.0625 L 76.3125 31.5 L 76.3125 31.4375 L 82.1875 27.09375 z M 17.90625 27.6875 L 23.78125 31.9375 L 23.78125 67.5 L 17.90625 71.28125 L 17.90625 27.6875 z M 35.9375 30.9375 L 62.3125 30.9375 L 69.1875 36.15625 L 69.1875 63.21875 L 62.1875 69.21875 L 36.96875 69.21875 L 30.90625 63.15625 L 30.90625 36.03125 L 35.9375 30.9375 z M 75.3125 32.15625 L 75.3125 66.375 L 70.1875 62.9375 L 70.1875 35.9375 L 75.3125 32.15625 z M 24.78125 32.65625 L 29.875 36.3125 L 29.90625 36.28125 L 29.90625 63.34375 L 29.90625 63.5625 L 24.78125 66.875 L 24.78125 32.65625 z M 69.84375 63.9375 L 75.125 67.46875 L 66.34375 75.0625 L 62.90625 69.90625 L 69.84375 63.9375 z M 30.65625 64.3125 L 36.09375 69.75 L 32.625 75.09375 L 25.28125 67.75 L 30.65625 64.3125 z M 76 68.0625 L 82.0625 72.125 L 70.8125 81.8125 L 66.875 75.90625 L 76 68.0625 z M 24.40625 68.3125 L 32.03125 75.9375 L 28.03125 82.03125 L 18.25 72.25 L 24.40625 68.3125 z M 37 70.21875 L 61.9375 70.21875 L 65.34375 75.34375 L 33.625 75.34375 L 37 70.21875 z M 82.90625 72.6875 L 88.53125 76.46875 L 88.6875 76.25 L 88.6875 76.40625 L 75.03125 88.15625 L 71.34375 82.625 L 82.90625 72.6875 z M 17.375 72.8125 L 27.46875 82.90625 L 23.71875 88.625 L 23.875 88.71875 L 23.8125 88.71875 L 23.71875 88.625 L 11.59375 76.5 L 17.375 72.8125 z M 32.96875 76.34375 L 66 76.34375 L 69.90625 82.21875 L 29.125 82.21875 L 32.96875 76.34375 z M 28.46875 83.21875 L 70.5 83.21875 L 70.5625 83.21875 L 74.21875 88.71875 L 24.875 88.71875 L 28.46875 83.21875 z " id="path4159" style="font-size:medium;font-style:normal;font-variant:normal;font-weight:normal;font-stretch:normal;text-indent:0;text-align:start;text-decoration:none;line-height:normal;letter-spacing:normal;word-spacing:normal;text-transform:none;direction:ltr;block-progression:tb;writing-mode:lr-tb;text-anchor:start;baseline-shift:baseline;color:#000000;fill:#000000;fill-opacity:1;stroke:none;stroke-width:1;marker:none;visibility:visible;display:inline;overflow:visible;enable-background:accumulate;font-family:Sans;-inkscape-font-specification:Sans" transform="translate(0,952.36218)"/></g></svg>